<?xml version="1.0" encoding="utf-8"?>
<!-- Generator: Adobe Adobe Illustrator 24.2.0, SVG Export Plug-In . SVG Version: 6.00 Build 0)  -->
<svg version="1.1" id="Layer_1" xmlns="http://www.w3.org/2000/svg" xmlns:xlink="http://www.w3.org/1999/xlink" x="0px" y="0px"
	 width="550px" height="550px" viewBox="0 0 550 550" style="enable-background:new 0 0 550 550;" xml:space="preserve">
<style type="text/css">
	.st0{fill:#FFFFFF;}
	.st1{fill:#575454;stroke:#000000;stroke-width:5;stroke-miterlimit:10;}
	.st2{fill:#383535;}
	.st3{fill:none;stroke:#000000;stroke-width:5;stroke-miterlimit:10;}
	.st4{fill:#FFFFFF;stroke:#000000;stroke-width:5;stroke-miterlimit:10;}
	.st5{stroke:#000000;stroke-width:7;stroke-miterlimit:10;}
	.st6{stroke:#000000;stroke-width:5;stroke-miterlimit:10;}
	.st7{stroke:#000000;stroke-width:8;stroke-miterlimit:10;}
</style>
<g>
	<path class="st1" d="M222.78,36.36C119.51,58.48,36.04,151.15,26.03,254.81S80.25,464.98,177.44,505.9s219.72,13.02,288.83-65.76
		s79.4-202.26,19.26-288.05c15.77-39.81,31.54-79.61,37.99-120.74C426.65,31.68,327.42,13.94,222.78,36.36z"/>
	<path class="st2" d="M240.3,518.58c-25.05-58.43-25.09-126.83,2.11-184.46c2.35-41.38,4.69-82.76,7.63-124.44
		c-25.69-57.02-23.91-125.37,6.06-177.48c-80.98,7.1-157.16,54.35-197.24,124.04c-41.46,72.1-44.35,159.67-6.61,230.91
		c37.62,71.01,109.31,125.74,189.99,135.77C242.32,523.07,242.3,523.25,240.3,518.58z"/>
	<path class="st2" d="M485.53,152.09c-24.42-25.85-57.09-39.62-92.63-44.18c43.29-25.95,84.82-51.77,130.62-76.56
		C516.96,76.68,500.36,113.59,485.53,152.09z"/>
	<path class="st3" d="M222.78,36.36C119.51,58.48,36.04,151.15,26.03,254.81S80.25,464.98,177.44,505.9s219.72,13.02,288.83-65.76
		s79.4-202.26,19.26-288.05c15.77-39.81,31.54-79.61,37.99-120.74C426.65,31.68,327.42,13.94,222.78,36.36z"/>
	<rect x="71.95" y="209.75" class="st4" width="406.11" height="123.57"/>
	<path class="st5" d="M127.12,243.75c35.68,11.88,71.36,23.76,107.66,35.8c1.47-5.36,2.95-10.72,3.46-16.66
		c-4.95,1.19-9.9,2.37-14.38,2.83c-31.11-11.22-62.22-22.44-93.74-32.56C129.94,233.38,129.76,233.6,127.12,243.75z"/>
	<path class="st6" d="M446.97,238.38c-33.12,11.88-66.24,23.76-99.93,35.8c-1.37-5.36-2.74-10.72-3.21-16.66
		c4.6,1.19,9.19,2.37,13.34,2.83c28.88-11.22,57.76-22.44,87.01-32.56C444.35,228.01,444.51,228.23,446.97,238.38z"/>
	<ellipse class="st6" cx="182.67" cy="274.18" rx="11.82" ry="11.64"/>
	<ellipse class="st7" cx="379.57" cy="271.54" rx="9.13" ry="9"/>
	<path class="st3" d="M71.95,333.32c1.78,31.37,4.89,65.23,6.82,96.52c55.86,64.53,124.15,99.1,200.25,94.8
		c84.09-4.75,141.57-32.03,191.5-89.49c2.73-32.21,4.01-70.07,7.01-102.25c-0.04,0.3-0.08-0.89-1.93,0.43
		C340.6,333.13,204.28,331.94,71.95,333.32z"/>
</g>
</svg>
